{"title":"Welcome.To.The.Punch.2013.WEBRip.XviD.Ac3.Feel-Free","uid":8324045,"size":949685040,"categoryP":"video","categoryS":"movies","magnet":"?xt=urn:btih:58f64e78874d4344d20385a9384ec6f1e4f745e3&amp;dn=Welcome.To.The.Punch.2013.WEBRip.XviD.Ac3.Feel-Free&amp;tr=udp%3A%2F%2Ftracker.openbittorrent.com%3A80&amp;tr=udp%3A%2F%2Fopen.demonii.com%3A1337&amp;tr=udp%3A%2F%2Ftracker.coppersurfer.tk%3A6969&amp;tr=udp%3A%2F%2Fexodus.desync.com%3A6969","seeders":1,"leechers":0,"uploader":"Gh0stNet","files":7,"time":1364755644,"description":"Genre:Action | Adventure | Crime\nLanguage:English\nIMDb:http://www.imdb.com/title/tt1684233/\nSource: 1080p WEB-DL H264-HKD Thanks\nSample:Never\nEncoder:Tony\n\nFormat                                   : AVI\nFormat/Info                              : Audio Video Interleave\nFile size                                : 905 MiB\nDuration                                 : 1h 39mn\nOverall bit rate                         : 1 268 Kbps\n\nVideo\nID                                       : 0\nFormat                                   : MPEG-4 Visual\nFormat profile                           : Advanced Simple@L5\nFormat settings, BVOP                    : 1\nFormat settings, QPel                    : No\nFormat settings, GMC                     : No warppoints\nFormat settings, Matrix                  : Default (H.263)\nCodec ID                                 : XVID\nCodec ID/Hint                            : XviD\nDuration                                 : 1h 39mn\nBit rate                                 : 875 Kbps\nWidth                                    : 640 pixels\nHeight                                   : 264 pixels\nDisplay aspect ratio                     : 2.40:1\nFrame rate                               : 23.976 fps\nColor space                              : YUV\nChroma subsampling                       : 4:2:0\nBit depth                                : 8 bits\nScan type                                : Progressive\nCompression mode                         : Lossy\nBits/(Pixel*Frame)                       : 0.216\nStream size                              : 624 MiB (69%)\nWriting library                          : XviD 1.2.1 (UTC 2008-12-04)\n\nAudio\nID                                       : 1\nFormat                                   : AC-3\nFormat/Info                              : Audio Coding 3\nMode extension                           : CM (complete main)\nCodec ID                                 : 2000\nDuration                                 : 1h 39mn\nBit rate mode                            : Constant\nBit rate                                 : 384 Kbps\nChannel(s)                               : 6 channels\nChannel positions                        : Front: L C R, Side: L R, LFE\nSampling rate                            : 48.0 KHz\nBit depth                                : 16 bits\nCompression mode                         : Lossy\nStream size                              : 274 MiB (30%)\nAlignment                                : Aligned on interleaves\nInterleave, duration                     : 42 ms (1.00 video frame)\nInterleave, preload duration             : 512 ms\n\nScreens: &lt;a href=&quot;\nhttp://i.imgur.com/5TBfmuE.png&quot; rel=&quot;nofollow&quot; target=&quot;_NEW&quot;&gt;\nhttp://i.imgur.com/5TBfmuE.png&lt;/a&gt; &lt;a href=&quot;\nhttp://i.imgur.com/aKkoDug.png&quot; rel=&quot;nofollow&quot; target=&quot;_NEW&quot;&gt;\nhttp://i.imgur.com/aKkoDug.png&lt;/a&gt; &lt;a href=&quot;\nhttp://i.imgur.com/LsVoRHn.png&quot; rel=&quot;nofollow&quot; target=&quot;_NEW&quot;&gt;\nhttp://i.imgur.com/LsVoRHn.png&lt;/a&gt; &lt;a href=&quot;\nhttp://i.imgur.com/ahQQ5r6.png&quot; rel=&quot;nofollow&quot; target=&quot;_NEW&quot;&gt;\nhttp://i.imgur.com/ahQQ5r6.png&lt;/a&gt;","torrent":{"xt":"urn:btih:58f64e78874d4344d20385a9384ec6f1e4f745e3","amp;dn":"Welcome.To.The.Punch.2013.WEBRip.XviD.Ac3.Feel-Free","amp;tr":["udp%3A%2F%2Ftracker.openbittorrent.com%3A80","udp%3A%2F%2Fopen.demonii.com%3A1337","udp%3A%2F%2Ftracker.coppersurfer.tk%3A6969","udp%3A%2F%2Fexodus.desync.com%3A6969"],"infoHash":"58f64e78874d4344d20385a9384ec6f1e4f745e3","infoHashBuffer":{"type":"Buffer","data":[88,246,78,120,135,77,67,68,210,3,133,169,56,78,198,241,228,247,69,227]},"announce":[],"urlList":[]}}